<?xml version="1.0" encoding="UTF-8"?>
<svg xmlns="http://www.w3.org/2000/svg" viewBox="0 0 1080 1080" role="img" aria-label="Brrtz local beta favicon">
  <defs>
    <linearGradient id="local-beta-b-gradient" x1="735" y1="149.3" x2="194.9" y2="1084.8" gradientUnits="userSpaceOnUse">
      <stop offset="0" stop-color="#ff7a00"/>
      <stop offset="1" stop-color="#8b2cff"/>
    </linearGradient>
  </defs>
  <path fill="url(#local-beta-b-gradient)" d="M57.6,142c0-12.2,10.1-26,30.2-41.4,42.4-32.4,117.3-57.6,224.5-75.6,55.7-9,117-13.5,183.9-13.5,159.2,0,279.7,30.8,361.4,92.3,71.6,54.1,107.5,125.2,107.5,213.3s-5.6,63-16.7,93.5c-11.1,30.5-27.1,53.5-47.8,68.9-28.1-14.3-55.2-21.5-81.2-21.5s-21.5,2.4-27.9,7.2c-6.4,4.8-9.6,13.5-9.6,26.3,78,3.2,138.8,31.3,182.3,84.4,38.7,48.3,58.1,108.3,58.1,179.9,0,110.9-46.4,191.6-139.3,242-87,47.2-218.1,70.8-393.2,70.8s-212.5-3.9-269.8-11.5c-57.3-7.7-98.7-25.9-124.2-54.5-25.5-28.7-38.2-72.2-38.2-130.5V142h0ZM489.9,448.5c2.1,1.6,8.2,2.4,18.3,2.4s17.8-4,23.1-11.9c5.3-8,8-21,8-39v-4.8c0-19.1-2.3-32.8-6.8-41s-11.9-12.3-22.3-12.3-17.4,1.1-21.1,3.2c.5,2.7.8,7.2.8,13.5v89.9h0ZM489.9,748.5c2.1,1.6,8.2,2.4,18.3,2.4s17.8-3.4,23.1-10.3c5.3-6.9,8-19.1,8-36.6v-15.1c0-19.6-2.3-33.7-6.8-42.2s-11.9-12.7-22.3-12.7-17.4,1.1-21.1,3.2c.5,2.7.8,7.2.8,13.5v97.9h0Z"/>
</svg>
