<?xml version="1.0" encoding="UTF-8"?>
<svg id="Layer_1" xmlns="http://www.w3.org/2000/svg" version="1.1" viewBox="0 0 600.6 163.8">
  <!-- Generator: Adobe Illustrator 30.5.1, SVG Export Plug-In . SVG Version: 2.1.4 Build 3)  -->
  <path d="M0,24.5c0-1.8,1.5-3.9,4.5-6.2,6.3-4.8,17.5-8.6,33.5-11.3,8.3-1.3,17.5-2,27.5-2,23.8,0,41.8,4.6,54,13.8,10.7,8.1,16.1,18.7,16.1,31.9s-.8,9.4-2.5,14c-1.7,4.6-4,8-7.1,10.3-4.2-2.1-8.2-3.2-12.1-3.2s-3.2.4-4.2,1.1c-1,.7-1.4,2-1.4,3.9,11.7.5,20.7,4.7,27.2,12.6,5.8,7.2,8.7,16.2,8.7,26.9,0,16.6-6.9,28.6-20.8,36.2-13,7.1-32.6,10.6-58.8,10.6s-31.8-.6-40.3-1.7c-8.6-1.1-14.8-3.9-18.6-8.1-3.8-4.3-5.7-10.8-5.7-19.5V24.5ZM64.6,70.3c.3.2,1.2.4,2.7.4s2.7-.6,3.4-1.8c.8-1.2,1.2-3.1,1.2-5.8v-.7c0-2.9-.3-4.9-1-6.1-.7-1.2-1.8-1.8-3.3-1.8s-2.6.2-3.2.5c0,.4.1,1.1.1,2v13.4ZM64.6,115.2c.3.2,1.2.4,2.7.4s2.7-.5,3.4-1.5c.8-1,1.2-2.9,1.2-5.5v-2.3c0-2.9-.3-5-1-6.3-.7-1.3-1.8-1.9-3.3-1.9s-2.6.2-3.2.5c0,.4.1,1.1.1,2v14.6Z"/>
  <path d="M183.2,163.2c-9.4,0-17-1.7-22.6-5.1-6.3-3.6-9.4-8.8-9.4-15.8v-61.3c-4.7-6.6-7-14.7-7-24.3s2.3-18,7-25h18.2c9.4,0,16.1,3,20.1,9-2,2.2-3.7,5-5.2,8.4-1.5,3.4-2.3,5.8-2.3,7.3s.4,2.6,1.1,3.3c.8.7,1.8,1.1,3.3,1.1,2.8-11,8-19.1,15.8-24.3,6.4-4.4,14.4-6.5,23.8-6.5s20.9,2.5,27.6,7.5c2.4,6.3,3.6,14.1,3.6,23.3s-1.8,17.5-5.5,24.9c-2.7,1.4-6.4,2.6-11.2,3.6-4.8,1-9.6,1.5-14.4,1.5s-9.2-.3-13-1c-3.8-.7-6.6-1.3-8.4-1.8-.6.6-1,1.5-1,2.7s.8,2.1,2.3,2.7,4.1,1.2,7.8,2v59.7c-8.6,5.5-18.9,8.2-30.7,8.2Z"/>
  <path d="M300.8,163.2c-9.4,0-17-1.7-22.6-5.1-6.3-3.6-9.4-8.8-9.4-15.8v-61.3c-4.7-6.6-7-14.7-7-24.3s2.3-18,7-25h18.2c9.4,0,16.1,3,20.1,9-2,2.2-3.7,5-5.2,8.4-1.5,3.4-2.3,5.8-2.3,7.3s.4,2.6,1.1,3.3c.8.7,1.8,1.1,3.3,1.1,2.8-11,8-19.1,15.8-24.3,6.4-4.4,14.4-6.5,23.8-6.5s20.9,2.5,27.6,7.5c2.4,6.3,3.6,14.1,3.6,23.3s-1.8,17.5-5.5,24.9c-2.7,1.4-6.4,2.6-11.2,3.6-4.8,1-9.6,1.5-14.4,1.5s-9.2-.3-13-1c-3.8-.7-6.6-1.3-8.4-1.8-.6.6-1,1.5-1,2.7s.8,2.1,2.3,2.7,4.1,1.2,7.8,2v59.7c-8.6,5.5-18.9,8.2-30.7,8.2Z"/>
  <path d="M392.5,86.5h7.4c4,0,5.9-1.3,5.9-3.9s0-.8-.2-1.4h-26.6c-1.7-5.5-2.6-11.8-2.6-18.6s.5-12.4,1.5-16.7c4.5-2.9,10.7-7.2,18.7-13.1,2.2-5.4,5.1-14,8.7-25.7.5-1.6,1-3.1,1.7-4.6,6.2-1.6,13.2-2.4,21.2-2.4s15.7.8,23.4,2.5v29.1h20.6c4.6,7,6.9,15.2,6.9,24.6s-.6,8.7-1.8,13.2c-1.2,4.5-2.9,8.4-5.1,11.5h-17v18c0,10.2,4.2,15.2,12.7,15.2h5.1c1.7,6,2.5,11.3,2.5,15.7,0,10.9-3.4,19.3-10.3,25.2-6.9,5.8-16.8,8.7-29.9,8.7s-23.4-3.6-31.2-10.9c-7.7-7.3-11.6-17.9-11.6-32.1v-34.4Z"/>
  <path d="M597.9,62.1c0,2.1-.3,5.3-1,9.3-.6,4.1-1.4,7.4-2.3,9.8-7.4,10.2-16.2,18.7-26.5,25.7-10.2.5-17.6,1.5-22.3,3.1-4.7,1.6-7.1,3.4-7.1,5.4s.4,2.2,1.3,2.9c3.3-1.8,7.9-3.3,13.8-4.3,5.9-1.1,11.5-1.6,16.9-1.6h23c2.1,3.6,3.7,7.6,5,12,1.3,4.4,1.9,8.3,1.9,11.6,0,9.2-2.5,16-7.5,20.5-4,3.6-9.4,5.4-16.3,5.4h-84.8c-7.1-7.4-10.6-18.9-10.6-34.5s1-12.5,3.1-20.3c7.2-8,17.4-17.1,30.7-27.2,2.6-2.1,5.6-4.5,8.8-7.3-.5-1.8-1.5-2.7-3.2-2.7s-.9,0-1.7.2c-2.3.7-7.1,4.5-14.4,11.3h-14.8c-4.7-7.7-7-15.9-7-24.7s.9-10.5,2.6-14.8c1.7-4.3,3.9-7.6,6.4-10h98.1c5.2,7.5,7.7,17.7,7.7,30.5Z"/>
</svg>