<?xml version="1.0" encoding="UTF-8"?>
<svg id="Layer_1" xmlns="http://www.w3.org/2000/svg" version="1.1" viewBox="0 0 1009.1 206.6">
  <!-- Generator: Adobe Illustrator 30.4.0, SVG Export Plug-In . SVG Version: 2.1.4 Build 226)  -->
  <defs>
    <style>
      .st0 {
        fill: #261f1c;
      }
    </style>
  </defs>
  <path class="st0" d="M6.5,24.7c0-1.8,1.5-3.9,4.5-6.2,6.3-4.8,17.5-8.6,33.5-11.3,8.3-1.3,17.5-2,27.5-2,23.8,0,41.8,4.6,54,13.8,10.7,8.1,16.1,18.7,16.1,31.9s-.8,9.4-2.5,14c-1.7,4.6-4,8-7.1,10.3-4.2-2.1-8.2-3.2-12.1-3.2s-3.2.4-4.2,1.1c-1,.7-1.4,2-1.4,3.9,11.7.5,20.7,4.7,27.2,12.6,5.8,7.2,8.7,16.2,8.7,26.9,0,16.6-6.9,28.6-20.8,36.2-13,7.1-32.6,10.6-58.8,10.6s-31.8-.6-40.3-1.7c-8.6-1.1-14.8-3.9-18.6-8.1-3.8-4.3-5.7-10.8-5.7-19.5V24.7ZM71.1,70.5c.3.2,1.2.4,2.7.4s2.7-.6,3.4-1.8c.8-1.2,1.2-3.1,1.2-5.8v-.7c0-2.9-.3-4.9-1-6.1-.7-1.2-1.8-1.8-3.3-1.8s-2.6.2-3.2.5c0,.4.1,1.1.1,2v13.4ZM71.1,115.4c.3.2,1.2.4,2.7.4s2.7-.5,3.4-1.5c.8-1,1.2-2.9,1.2-5.5v-2.3c0-2.9-.3-5-1-6.3-.7-1.3-1.8-1.9-3.3-1.9s-2.6.2-3.2.5c0,.4.1,1.1.1,2v14.6Z"/>
  <path class="st0" d="M219.1,110c1,0,2-.4,3.1-1.2-.8-2.6-1.2-6.7-1.2-12.3v-58.8c8.4-5.1,18.5-7.6,30.3-7.6s12.5.9,17.5,2.7c5,1.8,8.9,4.1,11.6,7.1v62c0,11.8,2.9,19.5,8.6,23.1,0,.4.1,1.2.1,2.3v2.1c0,11.6-3.1,20.3-9.2,26.3-5.6,5.6-13.2,8.3-23,8.3s-11.6-1.4-16.6-4.2c-5-2.8-8.7-6.8-11.1-12.1-2.7,0-4,1.3-4,3.9s.9,3.6,2.7,5.5c-2.5,2.1-5.6,3.7-9.2,5-3.6,1.3-8.8,1.9-15.8,1.9s-13.7-1.4-20.3-4.3c-8.2-3.5-14.4-8.8-18.8-16.1-5.3-8.6-8-19.4-8-32.6v-29.9c-4-7.1-6.1-14.8-6.1-23.3s.6-8.9,1.7-13.6c1.1-4.7,2.9-8.8,5.4-12.5h26.2c9.8,0,17.5,2.3,23.1,7,5.6,4.6,8.4,11.7,8.4,21.1v38.5c0,7.7,1.5,11.5,4.4,11.5Z"/>
  <path class="st0" d="M487,103c0,5.8.6,10.5,1.9,14.2,1.3,3.6,3.5,6.5,6.7,8.4,0,.4.1,1.1.1,2v1.8c0,10.9-3.2,19.4-9.5,25.5-6.3,6.1-14.5,9.2-24.6,9.2s-18.1-2.7-24.2-8.2c-7.2-6.3-10.8-16.1-10.8-29.1v-37.6c0-5.3-1.7-8-5.2-8s-2.4.3-3.2,1l2.1,17.7v26.9c0,10.8,1.8,19,5.4,24.5-3.8,4-8.5,7.2-14.2,9.5-5.7,2.3-11.4,3.4-17.3,3.4-9.5,0-16.9-2.3-22.1-6.9-6.3-5.5-9.5-14.3-9.5-26.3v-41.8c0-5.3-1.7-8-5.2-8s-2.4.3-3.2,1l2.1,17.7v31.5c0,8.9,1.2,15.7,3.6,20.6-7.8,8-18.7,12-32.7,12s-15.3-2.1-21.1-6.3c-6.6-4.8-9.9-11.3-9.9-19.5v-56.9c-4.7-6.6-7-14.7-7-24.3s2.3-18,7-25h28.7c5.6,0,10.4,2.1,14.4,6.3-3.5,3.3-5.2,5.9-5.2,8.1s1.4,3.7,4.2,3.7c3.5-6,8.3-10.8,14.4-14.4,7.1-4,15.5-6.1,25.1-6.1s13.7,1.5,19.2,4.6c5.5,3.1,9.6,6.7,12.3,10.7,3.7-5.1,8.6-8.9,14.6-11.5,6-2.6,12.2-3.9,18.7-3.9,14.4,0,25.5,4.4,33.4,13.3,7.8,8.9,11.7,21.1,11.7,36.5l-.5,23.7Z"/>
  <path class="st0" d="M524.9,46.4c0,2.4,1.4,3.6,4.2,3.6,4.8-7.5,10.4-13,16.8-16.6,6.4-3.6,14.2-5.4,23.2-5.4s17.3,1.4,24.7,4.3c10.2,4,18.3,10.5,24.3,19.5,7.5,11.3,11.2,26.2,11.2,44.6s-5.5,36.8-16.6,48.2c-11.1,11.5-26.4,17.2-46,17.2s-19.5-1.3-25.6-4c-.6.3-.8,1-.8,2,0,2.4,1.8,4.1,5.5,5.1,3.7,1,10.1,1.8,19.1,2.3v31.6c-8.2,3.6-17.1,5.5-26.9,5.5s-20.2-2.1-26.1-6.3c-6.7-4.5-10-11.5-10-20.8v-95.8c-4.7-6.6-7-14.8-7-24.5s.6-8.3,1.9-13c1.3-4.7,3-8.7,5.1-12h16.9c6.9,0,12.2,1,15.8,2.9-6.5,4.8-9.8,8.7-9.8,11.7ZM562.9,97.7v15.9c.6.6,1.5.8,2.7.8s2.2-.4,2.7-1.3c.6-.9.8-2.4.8-4.5v-12.1c0-7.6-.3-12.7-1-15.2-.6-2.5-1.8-3.7-3.6-3.7s-2.1.4-2.9,1.2c.7,7.9,1.1,14.2,1.1,18.9Z"/>
  <path class="st0" d="M705.5,165.6c-22,0-39.3-6.1-52-18.3-13-12.3-19.5-29.1-19.5-50.5s6.7-38.3,20.1-50.9c12.4-11.7,28-17.5,47-17.5s34.2,5.2,45.6,15.6c11.5,10.4,17.2,23.3,17.2,38.5s-4.7,23.8-14.2,30.7c-8.7,6.5-20.6,9.8-35.7,9.8s-20.8-2.3-28.6-7c-.6.5-1,1.3-1,2.6,0,2.4,3.1,4.6,9.4,6.5,6.3,2.1,13.4,3.2,21.4,3.2s15.2-1,21.8-3c6.5-2,11.8-4.4,15.8-7.2,1.9,1.7,3.4,4.7,4.6,9.2,1.1,4.5,1.7,8.6,1.7,12.3s-.4,7-1.1,9.8c-6.2,5.2-12.5,9-19,11.2-9.2,3.3-20.4,5-33.5,5ZM703.9,85.1c4,0,5.9-1.5,5.9-4.5s-2.1-4.3-6.3-4.3-6.6,2.3-7.3,6.8c2.2,1.3,4.8,2,7.6,2Z"/>
  <path class="st0" d="M804.9,163.4c-9.4,0-17-1.7-22.6-5.1-6.3-3.6-9.4-8.8-9.4-15.8v-61.3c-4.7-6.6-7-14.7-7-24.3s2.3-18,7-25h18.2c9.4,0,16.1,3,20.1,9-2,2.2-3.7,5-5.2,8.4-1.5,3.4-2.3,5.8-2.3,7.3s.4,2.6,1.1,3.3c.8.7,1.8,1.1,3.3,1.1,2.8-11,8-19.1,15.8-24.3,6.4-4.4,14.4-6.5,23.8-6.5s20.9,2.5,27.6,7.5c2.4,6.3,3.6,14.1,3.6,23.3s-1.8,17.5-5.5,24.9c-2.7,1.4-6.4,2.6-11.2,3.6-4.8,1-9.6,1.5-14.4,1.5s-9.2-.3-13-1c-3.8-.7-6.6-1.3-8.4-1.8-.6.6-1,1.5-1,2.7s.8,2.1,2.3,2.7c1.5.6,4.1,1.2,7.8,2v59.7c-8.6,5.5-18.9,8.2-30.7,8.2Z"/>
  <path class="st0" d="M949,68.6c-2.1.6-3.1,1.9-3.1,3.7v.6c0,.4,0,.6.1.7.9,0,2-.1,3.4-.1h2.9c9,0,17.5,1.4,25.4,4.1,7.9,2.7,14.3,7.1,19.3,13.1,5.5,6.8,8.3,15.4,8.3,25.8,0,16.2-5.6,28.4-16.8,36.6-11.2,8.2-26.1,12.4-44.8,12.4s-33.4-3.1-44-9.3c-10.6-6.2-15.9-15.3-15.9-27.2s1-8.5,2.9-12.2,4-6.3,6.4-7.8c4.4,3.6,10.7,6.8,19,9.5,8.3,2.7,17.1,4,26.3,4s5.6-1,5.6-3.1-.1-1.7-.4-2.4c-.6,0-1.2.1-2,.1h-1.3c-16.8,0-30.3-3.3-40.3-10-11.4-7.5-17.1-18.2-17.1-31.9s5.1-24.8,15.3-33.3c11.3-9.4,26.9-14,46.8-14s18.9,1,27.3,3.1c8.4,2.1,15.7,4.8,21.7,8.2,1.5,3.3,2.3,8.1,2.3,14.4,0,9.7-2.7,17.1-8,22.2-4-2.2-9-4.1-14.8-5.5-5.8-1.5-11.1-2.2-15.8-2.2s-7.6.2-8.8.5Z"/>
</svg>