<svg width="1100" height="372" viewBox="0 0 1100 372" fill="none" xmlns="http://www.w3.org/2000/svg">
<mask id="path-1-inside-1_6_685" fill="white">
<path d="M478 18.6001C478 28.8726 486.328 37.2002 496.6 37.2002H1068C1085.67 37.2002 1100 51.5271 1100 69.2002V340C1100 357.673 1085.67 372 1068 372H32C14.3269 372 0 357.673 0 340V32C0 14.3269 14.3269 0 32 0H459.4C469.672 0 478 8.32755 478 18.6001Z"/>
</mask>
<path d="M496.6 37.2002V39.2002H1068V37.2002V35.2002H496.6V37.2002ZM1100 69.2002H1098V340H1100H1102V69.2002H1100ZM1068 372V370H32V372V374H1068V372ZM0 340H2V32H0H-2V340H0ZM32 0V2H459.4V0V-2H32V0ZM459.4 0V2C468.568 2 476 9.43212 476 18.6001H478H480C480 7.22298 470.777 -2 459.4 -2V0ZM0 32H2C2 15.4314 15.4315 2 32 2V0V-2C13.2223 -2 -2 13.2223 -2 32H0ZM32 372V370C15.4314 370 2 356.569 2 340H0H-2C-2 358.778 13.2223 374 32 374V372ZM1100 340H1098C1098 356.569 1084.57 370 1068 370V372V374C1086.78 374 1102 358.778 1102 340H1100ZM1068 37.2002V39.2002C1084.57 39.2002 1098 52.6317 1098 69.2002H1100H1102C1102 50.4225 1086.78 35.2002 1068 35.2002V37.2002ZM496.6 37.2002V35.2002C487.432 35.2002 480 27.7681 480 18.6001H478H476C476 29.9772 485.223 39.2002 496.6 39.2002V37.2002Z" fill="url(#paint0_linear_6_685)" mask="url(#path-1-inside-1_6_685)"/>
<defs>
<linearGradient id="paint0_linear_6_685" x1="550" y1="-27.9" x2="550" y2="372" gradientUnits="userSpaceOnUse">
<stop offset="1"/>
<stop offset="1" stop-opacity="0"/>
</linearGradient>
</defs>
</svg>
