<?xml version="1.0" encoding="UTF-8"?>
<svg id="Layer_1" data-name="Layer 1" xmlns="http://www.w3.org/2000/svg" viewBox="0 0 837.35 837.35">
  <defs>
    <style>
      .cls-1 {
        fill: #fff;
      }

      .cls-2 {
        stroke-linecap: round;
        stroke-linejoin: round;
        stroke-width: 30px;
      }

      .cls-2, .cls-3, .cls-4, .cls-5, .cls-6 {
        stroke: #261f1c;
      }

      .cls-2, .cls-6 {
        fill: none;
      }

      .cls-3 {
        stroke-width: 10px;
      }

      .cls-3, .cls-4, .cls-5 {
        fill: #261f1c;
      }

      .cls-3, .cls-4, .cls-5, .cls-6 {
        stroke-miterlimit: 10;
      }

      .cls-4 {
        stroke-width: 10.9px;
      }

      .cls-5 {
        stroke-width: 15px;
      }

      .cls-6 {
        stroke-width: 27.22px;
      }
    </style>
  </defs>
  <g>
    <circle class="cls-1" cx="418.61" cy="419.7" r="274.2"/>
    <path class="cls-6" d="M554.32,254.94c47.31,39.1,77.46,98.23,77.46,164.4,0,117.73-95.44,213.17-213.17,213.17s-213.17-95.44-213.17-213.17c0-66.73,30.66-126.3,78.67-165.39"/>
    <path class="cls-5" d="M420.67,700.38c-155.33.08-281.74-126.33-281.73-281.73.06-155.34,126.44-281.72,281.69-281.69,155.38,0,281.79,126.41,281.77,281.68.06,155.38-126.44,281.82-281.74,281.74ZM420.65,149.02c-148.68,0-269.67,120.99-269.63,269.63.02,148.72,120.98,269.69,269.61,269.79,148.76-.02,269.75-121.01,269.76-269.76-.02-148.66-121.04-269.63-269.75-269.66Z"/>
    <path class="cls-4" d="M431.6,323.57l-45.19-.05c-19.25.03-20.73-12.25-20.8-12.72l-.03-41.7c.05-4.02-5.74-8.09-9.26-9.79l-70.93-.05c-51.88.02-106.74,59.83-107.26,60.35-2.37,2.74-6.56,2.93-9.32.47-2.64-2.41-2.88-6.54-.42-9.24,2.36-2.66,59.34-64.72,116.99-64.72l72.38-.02c.93.08,1.82.27,2.59.64,1.89.71,18.36,8.16,18.41,22.38l-.03,40.96c-.02-1.13,2.15.3,7.79.32l45.05.02c3.6-.03,6.53,2.9,6.53,6.53.1,3.6-2.81,6.51-6.5,6.63Z"/>
    <path class="cls-4" d="M457.48,323.57l-25.92-.03c-3.67-.03-6.61-2.98-6.61-6.61.03-3.6,2.94-6.51,6.61-6.51l25.97-.02c5.59-.03,7.72-1.43,8.01-1.95l-.24-39.31c0-14.2,16.37-21.66,18.26-22.43.88-.37,1.82-.6,2.64-.59l72.43.03c57.72-.03,113.36,63.85,115.67,66.56,2.37,2.71,2.1,6.85-.62,9.2-2.75,2.37-6.85,2.04-9.31-.72-.54-.54-54.07-61.95-105.74-61.81l-70.95-.07c-3.63,1.82-9.21,5.84-9.29,9.79l.07,40.99c-.1,1.18-1.55,13.4-20.98,13.48Z"/>
    <path class="cls-3" d="M373.32,251.95c-.32-.01-.82-.01-1.23-.09-3.27-.77-5.28-3.92-4.61-7.21l19.23-94.15c.68-3.24,3.92-5.31,7.15-4.61,3.24.71,5.31,3.92,4.61,7.14l-19.22,94.23c-.69,2.79-3.12,4.72-5.93,4.69Z"/>
    <path class="cls-3" d="M469.59,259.17c-2.75-.06-5.26-1.93-5.94-4.68l-20.32-103.39c-.72-3.16,1.31-6.47,4.51-7.1,3.26-.73,6.51,1.23,7.24,4.43l20.34,103.38c.74,3.24-1.31,6.47-4.57,7.22-.42.08-.85.14-1.25.14Z"/>
  </g>
  <g>
    <line class="cls-2" x1="753.18" y1="418.67" x2="822.35" y2="418.67"/>
    <line class="cls-2" x1="15" y1="418.67" x2="88.5" y2="418.67"/>
  </g>
  <g>
    <line class="cls-2" x1="655.2" y1="182.14" x2="704.11" y2="133.23"/>
    <line class="cls-2" x1="133.23" y1="704.11" x2="185.21" y2="652.14"/>
  </g>
  <g>
    <line class="cls-2" x1="182.14" y1="182.14" x2="133.23" y2="133.23"/>
    <line class="cls-2" x1="704.11" y1="704.11" x2="652.14" y2="652.14"/>
  </g>
  <g>
    <line class="cls-2" x1="418.67" y1="84.17" x2="418.67" y2="15"/>
    <line class="cls-2" x1="418.67" y1="822.35" x2="418.67" y2="748.84"/>
  </g>
</svg>