<?xml version="1.0" encoding="UTF-8"?>
<svg id="Layer_1" data-name="Layer 1" xmlns="http://www.w3.org/2000/svg" viewBox="0 0 993.57 927.86">
  <defs>
    <style>
      .cls-1 {
        fill: #261f1c;
      }
    </style>
  </defs>
  <path class="cls-1" d="M494.38,824.33c-202.74-.01-367.66-164.94-367.69-367.69,0-202.74,164.97-367.7,367.74-367.74,202.71.07,367.7,165,367.69,367.69.01,202.71-164.98,367.71-367.74,367.74ZM494.39,109.52c-191.4.03-347.03,155.66-347.09,347.09.06,191.38,155.69,347.12,347.09,347.09,191.4-.03,347.1-155.69,347.09-347.09-.01-191.37-155.69-347.06-347.09-347.09Z"/>
  <path class="cls-1" d="M494.4,738.31c-155.33.08-281.74-126.33-281.73-281.73.06-155.34,126.44-281.72,281.69-281.69,155.38,0,281.79,126.41,281.77,281.68.06,155.38-126.44,281.82-281.74,281.74ZM494.38,186.94c-148.68,0-269.67,120.99-269.63,269.63.02,148.72,120.98,269.69,269.61,269.79,148.76-.02,269.75-121.01,269.76-269.76-.02-148.66-121.04-269.63-269.75-269.66Z"/>
  <path class="cls-1" d="M504.47,308.52l-41.44-.05c-17.65.03-19.01-11.23-19.07-11.67l-.03-38.24c.05-3.69-5.26-7.42-8.49-8.98l-65.05-.05c-47.58.01-97.89,54.86-98.37,55.34-2.18,2.52-6.02,2.68-8.55.43-2.42-2.21-2.64-6-.39-8.47,2.16-2.44,54.41-59.36,107.29-59.36l66.38-.02c.85.08,1.67.25,2.38.59,1.73.65,16.84,7.48,16.88,20.53l-.03,37.56c-.01-1.04,1.98.28,7.15.29h41.31c3.3-.02,5.99,2.67,5.99,6,.09,3.3-2.58,5.97-5.96,6.08Z"/>
  <path class="cls-1" d="M528.21,308.52l-23.77-.03c-3.36-.03-6.07-2.73-6.06-6.06.03-3.3,2.7-5.97,6.07-5.97l23.81-.02c5.12-.03,7.08-1.31,7.35-1.79l-.22-36.05c0-13.02,15.02-19.86,16.75-20.57.8-.34,1.67-.55,2.42-.54l66.42.03c52.94-.03,103.96,58.55,106.07,61.04,2.18,2.48,1.93,6.28-.57,8.44-2.52,2.18-6.28,1.87-8.53-.66-.49-.49-49.59-56.81-96.97-56.68l-65.06-.06c-3.33,1.67-8.44,5.35-8.52,8.98l.06,37.59c-.09,1.08-1.42,12.29-19.24,12.36Z"/>
  <path class="cls-1" d="M447.05,252.36c-.32-.01-.82-.01-1.23-.09-3.27-.77-5.28-3.92-4.61-7.21l13.2-60.14c.68-3.24,3.92-5.31,7.15-4.61,3.24.71,5.31,3.92,4.61,7.14l-13.18,60.22c-.69,2.79-3.12,4.72-5.93,4.69Z"/>
  <path class="cls-1" d="M543.32,259.59c-2.75-.06-5.26-1.93-5.94-4.68l-15.03-66.48c-.72-3.16,1.31-6.47,4.51-7.1,3.26-.73,6.51,1.23,7.24,4.43l15.05,66.47c.74,3.24-1.31,6.47-4.57,7.22-.42.08-.85.14-1.25.14Z"/>
  <g>
    <polygon class="cls-1" points="993.57 492.25 873.7 492.27 873.7 474.23 993.52 474.24 993.57 492.25"/>
    <polygon class="cls-1" points="119.82 492.29 .02 492.22 0 474.22 119.86 474.21 119.82 492.29"/>
  </g>
  <g>
    <polygon class="cls-1" points="930.92 241.53 827.24 301.73 818.17 286.13 921.81 225.93 930.92 241.53"/>
    <polygon class="cls-1" points="175.34 680.35 71.73 740.53 62.68 724.95 166.26 664.76 175.34 680.35"/>
  </g>
  <g>
    <polygon class="cls-1" points="760.72 62.22 698.83 164.94 683.39 155.6 745.22 52.9 760.72 62.22"/>
    <polygon class="cls-1" points="310.14 810.89 248.4 913.49 232.85 904.25 294.65 801.57 310.14 810.89"/>
  </g>
  <g>
    <polygon class="cls-1" points="274.99 38.65 330.44 144.88 314.41 153.23 259.01 46.95 274.99 38.65"/>
    <polygon class="cls-1" points="679.17 813.25 734.57 919.47 718.57 927.86 663.16 821.61 679.17 813.25"/>
  </g>
  <g>
    <polygon class="cls-1" points="75.45 219.87 178.19 281.59 168.93 297.04 66.19 235.37 75.45 219.87"/>
    <polygon class="cls-1" points="824.7 669.42 927.41 731.08 918.11 746.58 815.38 684.92 824.7 669.42"/>
  </g>
  <polygon class="cls-1" points="537.37 78.57 472.95 78.55 472.89 0 537.33 0 537.37 78.57"/>
</svg>