<svg width="700" height="700" version="1.1" viewBox="0 0 682.67 682.67" xmlns="http://www.w3.org/2000/svg" xmlns:rdf="http://www.w3.org/1999/02/22-rdf-syntax-ns#" xmlns:cc="http://creativecommons.org/ns#" xmlns:dc="http://purl.org/dc/elements/1.1/">
 <rect width="100%" height="100%" ry="80" fill="#ffda45"/>
 <g transform="matrix(1.5795 0 0 -1.5795 -63.104 745.77)" fill="#231916">
  <path transform="matrix(.6 0 0 -.6 47 465)" d="m620.4 269.09-25.543 91.91h39.096l25.545-91.91zm-577.63 8e-3 10.367 37.301h-30.143l10.547 37.945h30.141l19.285 69.389h39.098l-19.283-69.389h26.492l-8.7461 31.471h39.098l8.7461-31.471 10.547-37.945h-86.684l-10.365-37.301zm363.59 0-10.365 37.301h-68.789l-10.543 37.945h53.707l-16.758 7.7285-41.82 19.281 1.1914 4.4609 8.9141 33.312 52.24-24.092-7.9746 28.697h39.098l10.539-37.918 8.7461-31.471h22.24l10.547-37.945h-22.24l10.367-37.301zm-211.6 37.301-10.545 37.945h76.205l-19.283 69.389h39.096l19.287-69.389 10.545-37.945h-39.098zm279.16 0-10.545 37.945-8.748 31.471h39.098l8.7461-31.471h37.658l-19.285 69.389h39.098l19.287-69.389 10.545-37.945h-39.098zm116.99 68.797-10.715 38.547h39.1l10.713-38.547z"/>
 </g>
 <metadata><rdf:RDF><cc:Work><dc:title>ヤフオク！</dc:title><dc:creator><cc:Agent><dc:title>Yahoo! Auctions (Yahoo!オークション)</dc:title></cc:Agent></dc:creator><dc:rights><cc:Agent><dc:title>PD-Ineligible</dc:title></cc:Agent></dc:rights><dc:publisher><cc:Agent><dc:title>Yahoo!</dc:title></cc:Agent></dc:publisher><dc:source>Yahoo!</dc:source><dc:language>ja</dc:language><dc:description>ヤフオク！のロゴ</dc:description><dc:subject><rdf:Bag><rdf:li>ヤフオク！</rdf:li><rdf:li>Yahoo-aucku!</rdf:li></rdf:Bag></dc:subject></cc:Work></rdf:RDF></metadata>
</svg>
