<?xml version="1.0" encoding="UTF-8"?>
<svg id="Layer_1" xmlns="http://www.w3.org/2000/svg" version="1.1" viewBox="0 0 1080 1080">
  <!-- Generator: Adobe Illustrator 30.3.0, SVG Export Plug-In . SVG Version: 2.1.3 Build 182)  -->
  <defs>
    <style>
      .st0 {
        fill: #fff100;
      }

      .st1 {
        fill: #005cff;
        fill-rule: evenodd;
      }
    </style>
  </defs>
  <circle class="st0" cx="540" cy="540" r="540"/>
  <path class="st1" d="M242.1,406.6c-103.6.8-186.8,85.5-186,189,.8,103.6,85.5,186.8,189,186,102.9-.8,186-84.5,186-187.4-.3-103.9-84.8-187.9-188.7-187.6-.1,0-.3,0-.4,0M242.1,671.8c-42.9-.4-77.5-35.5-77.1-78.4.4-42.9,35.5-77.5,78.4-77.1,42.7.4,77.1,35.1,77.1,77.8-.2,43.1-35.3,77.9-78.4,77.7,0,0,0,0,0,0ZM395.5,232.1c-41.4.3-74.8,34.1-74.5,75.5.3,41.4,34.1,74.8,75.5,74.5,41.2-.3,74.4-33.7,74.5-74.9,0-41.5-33.8-75.2-75.4-75.1,0,0,0,0-.1,0M635.8,294.6c41.4-.3,74.8-34.1,74.5-75.5-.3-41.4-34.1-74.8-75.5-74.5-41.3.3-74.6,33.8-74.5,75.1.1,41.5,33.8,75,75.3,74.9,0,0,.1,0,.2,0M876.3,380.8c41.4-.3,74.8-34.1,74.5-75.5-.3-41.4-34.1-74.8-75.5-74.5-41.2.3-74.5,33.7-74.5,74.9.1,41.6,33.9,75.2,75.5,75.1h0M662.2,408.6h-149c-26.2,0-47.5,21.1-47.6,47.2l-.2,264.2c.5,33.2,27.9,59.7,61,59.1,32.4-.5,58.6-26.7,59.1-59.1v-90.7h61.2c22.9.2,41.5-18.4,41.5-41.3,0-22.9-18.5-41.5-41.4-41.5h-61v-24.9h76.4c31.2.5,56.9-24.4,57.4-55.6.5-31.2-24.4-56.9-55.6-57.4-.6,0-1.2,0-1.8,0M925.5,629.5c22.9,0,41.5-18.5,41.5-41.4,0-22.9-18.5-41.5-41.4-41.5h-61v-24.9h76.5c31.2.5,56.9-24.4,57.4-55.6s-24.4-56.9-55.6-57.4c-.6,0-1.2,0-1.8,0h-149.1c-26.2,0-47.4,21.1-47.6,47.2l-.2,264.2c.5,33.2,27.8,59.6,61,59.1,32.4-.5,58.6-26.7,59.1-59.1v-90.7h61.2"/>
</svg>