<?xml version="1.0" encoding="UTF-8"?>
<svg id="_レイヤー_1" xmlns="http://www.w3.org/2000/svg" version="1.1" viewBox="0 0 1080 1080">
  <!-- Generator: Adobe Illustrator 30.3.0, SVG Export Plug-In . SVG Version: 2.1.3 Build 182)  -->
  <defs>
    <style>
      .st0 {
        fill: #55beee;
      }

      .st1 {
        fill: #fff;
      }

      .st2 {
        fill: #e72121;
        fill-rule: evenodd;
      }
    </style>
  </defs>
  <circle class="st1" cx="540" cy="540" r="540"/>
  <g>
    <path class="st2" d="M933.2,363.3v400.9c0,6.3-.9,12.5-2.6,18.5-1.7,6-4.3,11.8-7.6,17.1s-7.4,10.1-12,14.3c-4.7,4.2-9.8,7.6-15.5,10.4l-339.9,163.7c-9.3,4.5-19,6.8-29.3,6.8s-20.1-2.3-29.3-6.8l-199.9-97.4-137.6-67.8c-5.7-2.8-10.8-6.3-15.5-10.5s-8.7-9-12-14.4-5.8-11-7.6-17.1c-1.7-6-2.6-12.3-2.6-18.5v-400.8c0-6.3.9-12.3,2.7-18.4,1.7-6,4.2-11.6,7.6-16.9,3.2-5.3,7.2-10,11.9-14.2,4.6-4.2,9.7-7.6,15.3-10.4l338.7-168.6c9.5-4.7,19.5-7.1,30-7.1s20.5,2.4,30,7.1l338.3,169.8c5.6,2.8,10.7,6.3,15.3,10.6,4.6,4.2,8.5,9,11.9,14.3,3.2,5.3,5.8,11,7.5,17.1,1.7,6,2.5,12.2,2.5,18.4h0Z"/>
    <path class="st0" d="M989.3,372.9c0,11.9-1.1,23.8-3.5,35.5-2.4,11.8-5.8,23.1-10.3,34.1s-10.2,21.5-16.8,31.5c-6.7,9.9-14.2,19.2-22.7,27.6s-17.6,16-27.6,22.7c-9.9,6.7-20.5,12.3-31.5,16.8-11,4.5-22.4,8-34.1,10.4-11.7,2.4-23.5,3.5-35.5,3.5s-23.8-1.1-35.5-3.5c-11.7-2.4-23.1-5.8-34.1-10.4-11-4.5-21.5-10.2-31.5-16.8-9.9-6.7-19.1-14.2-27.6-22.7-8.4-8.4-16-17.6-22.7-27.6-6.7-9.9-12.3-20.5-16.8-31.5-4.5-11-8-22.4-10.3-34.1-2.4-11.8-3.5-23.5-3.5-35.5s1.1-23.8,3.5-35.5c2.4-11.8,5.8-23.1,10.3-34.1,4.5-11,10.2-21.5,16.8-31.5,6.7-9.9,14.2-19.2,22.7-27.6s17.6-16,27.6-22.7c9.9-6.7,20.5-12.3,31.5-16.8,11-4.5,22.4-8,34.1-10.4,11.7-2.4,23.5-3.5,35.5-3.5s23.8,1.1,35.5,3.5,23.1,5.8,34.1,10.4c11,4.5,21.5,10.2,31.5,16.8s19.1,14.2,27.6,22.7c8.4,8.4,16,17.6,22.7,27.6,6.7,9.9,12.3,20.5,16.8,31.5s8,22.4,10.3,34.1c2.4,11.7,3.5,23.5,3.5,35.5h0Z"/>
    <path class="st1" d="M232.8,705.3l-35.4-17.3v-105.6c0-30.7,17.3-62.5,53.2-58,14.9,2.5,28.3,8.4,40.3,17.7s21,20.9,27.1,34.7c5.4-5.1,11.8-8.7,18.9-10.7s14.4-2.3,21.8-.7c18.1,2.5,87.3,28.2,87.3,121.8v125.1l-39.1-19.4v-116.4c.5-7.5-.2-14.9-2.4-22-2.1-7.2-5.4-13.8-9.9-19.8s-9.8-11-16.2-15.1c-6.3-4.1-13.1-6.9-20.4-8.6-11.7-1.2-20.9,8.1-22.1,28.2s0,118.2,0,118.2l-35.6-17.3v-110.4c0-48.6-31.5-63.8-45-65-8,0-22.2,3.7-22.2,28.8v111.8h-.2Z"/>
  </g>
</svg>