<?xml version="1.0" encoding="UTF-8"?>
<svg id="_レイヤー_1" data-name="レイヤー_1" xmlns="http://www.w3.org/2000/svg" version="1.1" viewBox="0 0 1080 1080">
  <!-- Generator: Adobe Illustrator 30.3.0, SVG Export Plug-In . SVG Version: 2.1.3 Build 182)  -->
  <defs>
    <style>
      .st0 {
        fill: #55beee;
      }

      .st1 {
        fill: #fff;
      }

      .st2 {
        fill: #e72121;
        fill-rule: evenodd;
      }
    </style>
  </defs>
  <path class="st2" d="M1006.9,299.3v493.7c0,7.7-1.1,15.4-3.2,22.8-2.1,7.4-5.3,14.5-9.4,21s-9.1,12.4-14.8,17.6c-5.8,5.2-12.1,9.4-19.1,12.8l-418.6,201.6c-11.4,5.6-23.4,8.4-36.1,8.4s-24.7-2.8-36.1-8.4l-246.2-120-169.4-83.5c-7-3.4-13.3-7.7-19.1-12.9-5.8-5.2-10.7-11.1-14.8-17.7s-7.2-13.6-9.4-21.1c-2.1-7.4-3.2-15.1-3.2-22.8v-493.6c0-7.7,1.1-15.2,3.3-22.6,2.1-7.4,5.2-14.3,9.3-20.8,4-6.5,8.9-12.3,14.6-17.5,5.7-5.2,12-9.4,18.8-12.8L470.6,15.9c11.7-5.8,24-8.7,37-8.7s25.3,2.9,37,8.8l416.6,209.1c6.9,3.4,13.2,7.8,18.8,13,5.7,5.2,10.5,11.1,14.6,17.6,4,6.5,7.1,13.5,9.2,21,2.1,7.4,3.1,15,3.1,22.7Z"/>
  <path class="st0" d="M1075.9,311.1c0,14.7-1.4,29.3-4.3,43.7-2.9,14.5-7.1,28.4-12.7,42-5.6,13.6-12.5,26.5-20.7,38.8-8.2,12.2-17.5,23.6-27.9,34-10.4,10.4-21.7,19.7-34,27.9-12.2,8.2-25.2,15.1-38.8,20.7-13.6,5.6-27.6,9.9-42,12.8-14.4,2.9-29,4.3-43.7,4.3s-29.3-1.4-43.7-4.3c-14.4-2.9-28.4-7.1-42-12.8-13.6-5.6-26.5-12.5-38.8-20.7-12.2-8.2-23.5-17.5-34-27.9-10.4-10.4-19.7-21.7-27.9-34-8.2-12.2-15.1-25.2-20.7-38.8-5.6-13.6-9.9-27.6-12.7-42-2.9-14.5-4.3-29-4.3-43.7s1.4-29.3,4.3-43.7c2.9-14.5,7.1-28.4,12.7-42,5.6-13.6,12.5-26.5,20.7-38.8,8.2-12.2,17.5-23.6,27.9-34,10.4-10.4,21.7-19.7,34-27.9,12.2-8.2,25.2-15.1,38.8-20.7,13.6-5.6,27.6-9.9,42-12.8,14.4-2.9,29-4.3,43.7-4.3s29.3,1.4,43.7,4.3c14.4,2.9,28.4,7.1,42,12.8,13.6,5.6,26.5,12.5,38.8,20.7s23.5,17.5,34,27.9c10.4,10.4,19.7,21.7,27.9,34,8.2,12.2,15.1,25.2,20.7,38.8,5.6,13.6,9.9,27.6,12.7,42,2.9,14.4,4.3,29,4.3,43.7Z"/>
  <path class="st1" d="M144.4,720.5l-43.6-21.3v-130c0-37.8,21.3-77,65.5-71.4,18.4,3.1,34.9,10.4,49.6,21.8s25.8,25.7,33.4,42.7c6.7-6.3,14.5-10.7,23.3-13.2,8.8-2.5,17.7-2.8,26.8-.9,22.3,3.1,107.5,34.7,107.5,150v154.1l-48.2-23.9v-143.3c.6-9.2-.3-18.3-2.9-27.1-2.6-8.9-6.7-17-12.2-24.4-5.5-7.4-12.1-13.6-19.9-18.6-7.7-5-16.1-8.5-25.1-10.6-14.4-1.5-25.7,10-27.2,34.7-1.5,24.7,0,145.6,0,145.6l-43.9-21.3v-135.9c0-59.8-38.8-78.6-55.4-80.1-9.8,0-27.4,4.6-27.4,35.5v137.7h0Z"/>
</svg>