<?xml version="1.0" encoding="UTF-8"?>
<svg id="Layer_1" xmlns="http://www.w3.org/2000/svg" version="1.1" viewBox="0 0 1080 1080">
  <!-- Generator: Adobe Illustrator 30.3.0, SVG Export Plug-In . SVG Version: 2.1.3 Build 182)  -->
  <defs>
    <style>
      .st0 {
        fill: #fff;
      }

      .st1 {
        fill: #223686;
      }
    </style>
  </defs>
  <circle class="st1" cx="540" cy="540" r="540"/>
  <path class="st0" d="M208.4,772.1c-14.1,0-26.1-4.8-35.7-14.6-9.7-9.7-14.6-21.6-14.6-35.7v-408.5c0-13.6,4.8-25.2,14.6-35,9.7-9.7,21.6-14.6,35.7-14.6h114.7c59.2,0,106.6,14.7,142.2,44,35.6,29.3,53.4,70.2,53.4,122.5s-7.2,60.7-21.6,84.8c-14.4,24.1-35,42.9-61.6,56.6l99,122.5c3.6,4.8,6.5,9.6,8.6,14.6,2.1,5,3.1,10.6,3.1,16.9,0,13.1-4.6,24.1-13.7,33-9.1,8.9-20.1,13.4-32.6,13.4s-17.3-2.1-23.5-6.3c-6.3-4.2-12.8-10.7-19.7-19.6l-112.4-150.8c-8.9.5-17.8.8-26.7.8h-59.7v125.7c0,14.1-5,26.1-14.9,35.7-10,9.7-21.5,14.6-34.5,14.6h0ZM319.2,350.3h-61.3v159.5h61.3c30.4,0,54.1-6.4,71.1-19.2,17-12.8,25.5-32.8,25.5-60.1s-8.5-46.8-25.5-60.1c-17-13.4-40.7-20.1-71.1-20.1h0Z"/>
  <path class="st0" d="M729.1,773.7c-33.5,0-63.6-8.8-90.4-26.3-26.7-17.5-47.9-42.2-63.6-73.8-15.7-31.7-23.5-68.5-23.5-110.4s7.9-77.9,23.5-109.6c15.7-31.7,36.9-56.6,63.6-74.6,26.7-18,56.8-27.1,90.4-27.1s53.4,6.8,75.4,20.4c22,13.6,38.2,31.7,48.7,54.2l3.9-30.7c1-11,5.6-20.4,13.7-28.3s18.5-11.8,31-11.8,22.4,4.3,31,12.9c8.6,8.6,13,19.2,13,31.8v326c0,12.6-4.3,23.2-13,31.8-8.6,8.6-19.2,13-31.8,13s-20.7-3.6-29-10.6c-8.4-7.1-13.4-16.9-14.9-29.5l-3.9-31.4c-10.5,22.5-26.7,40.5-48.7,53.8-22,13.4-47.2,20.1-75.4,20.1h0ZM749.5,683.4c29.9,0,53.9-11,72.3-33,18.3-22,27.5-51.1,27.5-87.2s-9.2-65.2-27.5-87.2c-18.3-22-42.4-33-72.3-33s-52.4,11.1-70.7,33.4c-18.3,22.3-27.5,51.2-27.5,86.8s9.1,65.2,27.5,87.2c18.3,22,41.9,33,70.7,33h0Z"/>
  <polygon class="st0" points="944 818 158.2 818 220.8 880.6 944 818"/>
</svg>