<?xml version="1.0" encoding="UTF-8"?>
<svg id="Layer_1" xmlns="http://www.w3.org/2000/svg" version="1.1" viewBox="0 0 1080 1080">
  <!-- Generator: Adobe Illustrator 30.3.0, SVG Export Plug-In . SVG Version: 2.1.3 Build 182)  -->
  <defs>
    <style>
      .st0 {
        fill: #fff;
      }

      .st1 {
        fill: #f03;
      }
    </style>
  </defs>
  <circle class="st1" cx="540" cy="540" r="540"/>
  <path class="st0" d="M581.2,484.1c-9.2.9-47.2,9.4-60,12.2-13.7,3.7-145.3,106.6-153.5,130.4-1.8,8.2,0,96.8,0,96.8l74.4,5-2.6,24.5c-10.7-.7-79.7-.6-123-.6s-88.9,2.5-111.5,1.8l2.8-23.4c14.1,1.2,35.6-1,48.8-4.6,13.2-3.5,22.6-8.8,22.6-22v-76.8c-4.6-13.7-114-151.5-142.3-173.4-8.2-2.8-62.2-8.7-74.9-11.4l2.6-23.1h249.7l-3.6,21.2c-10.9,2.8-63.8,3.8-77.5,7.4,35.7,53,92.1,121.3,110.4,147.8,10-14.6,105.7-81.6,108.4-102.6-13.7-2.7-59.2-9.3-66.4-9.3l-4.3-23.5h215.6l-15.6,23.5h-.1Z"/>
  <path class="st0" d="M590.5,245.1h380.4v76.5h-289.2v234.7h267.2v75.5h-267.2v319.6h-91.2V245.1Z"/>
</svg>