<?xml version="1.0" encoding="UTF-8"?>
<svg id="Layer_1" xmlns="http://www.w3.org/2000/svg" version="1.1" viewBox="0 0 1080 1080">
  <!-- Generator: Adobe Illustrator 30.3.0, SVG Export Plug-In . SVG Version: 2.1.3 Build 182)  -->
  <defs>
    <style>
      .st0 {
        fill: #f9f9f9;
      }

      .st1 {
        fill: #f03;
      }
    </style>
  </defs>
  <circle class="st0" cx="540" cy="540" r="540"/>
  <path class="st1" d="M794,428.3c-12.2,1.2-63.1,12.6-80.1,16.3-18.3,4.9-193.9,142.3-204.9,174.1-2.5,11,0,129.2,0,129.2l99.4,6.7-3.5,32.8c-14.3-1-106.4-.8-164.1-.8s-118.6,3.3-148.8,2.4l3.8-31.2c18.8,1.6,47.5-1.4,65.2-6.1,17.6-4.7,30.2-11.7,30.2-29.3v-102.5c-6.1-18.3-152.2-202.2-190-231.5-11-3.7-83-11.6-100-15.2l3.5-30.8h333.4l-4.8,28.3c-14.6,3.7-85.1,5-103.5,9.9,47.6,70.8,122.9,161.9,147.3,197.3,13.4-19.5,141.1-109,144.8-137-18.3-3.6-79-12.4-88.7-12.4l-5.7-31.4h287.8l-20.9,31.4h-.2ZM745.3,790.6l-38.1-9.9,26.7-61.4,36.9,13.3,35.5,9.4-26.4,60-34.6-11.3h0ZM821.5,689.2l-54.8-16.8,88.2-288,124.4,38.1-24.5,39.8-133.3,226.8h0Z"/>
</svg>